<?xml version="1.0" encoding="UTF-8" standalone="no"?>
<svg width="94px" height="36px" viewBox="0 0 94 36" version="1.1" xmlns="http://www.w3.org/2000/svg" xmlns:xlink="http://www.w3.org/1999/xlink">
    <!-- Generator: Sketch 3.8.2 (29753) - http://www.bohemiancoding.com/sketch -->
    <title>arrow-1 copy</title>
    <desc>Created with Sketch.</desc>
    <defs>
        <circle id="path-1" cx="15" cy="15" r="15"></circle>
        <mask id="mask-2" maskContentUnits="userSpaceOnUse" maskUnits="objectBoundingBox" x="-3" y="-3" width="36" height="36">
            <rect x="-3" y="-3" width="36" height="36" fill="white"></rect>
            <use xlink:href="#path-1" fill="black"></use>
        </mask>
    </defs>
    <g id="Page-1" stroke="none" stroke-width="1" fill="none" fill-rule="evenodd">
        <g id="arrow-1-copy" transform="translate(46.500000, 18.000000) scale(-1, 1) translate(-46.500000, -18.000000) translate(0.000000, 3.000000)">
            <g id="Arrow" transform="translate(0.000000, 7.000000)">
                <path d="M0.5,8 L76,8" id="Path-994" stroke="#B3B3B3" stroke-width="3" stroke-linecap="round" stroke-linejoin="round" stroke-dasharray="1,7"></path>
                <path d="M81,15.1259162 L81,0.873069331 C81,0.0790221514 82.0020595,-0.224995912 82.5560925,0.177027975 L92.512684,7.26744926 C93.0627167,7.66947315 93.2007249,8.32951236 92.6486921,8.73153625 L82.4860883,15.8219575 C81.9360556,16.2279817 81,15.9159631 81,15.1259162 L81,15.1259162 Z" id="Right_1" fill="#B3B3B3"></path>
            </g>
            <g id="Lock" transform="translate(26.000000, 0.000000)">
                <g id="Oval-13">
                    <use fill="#F73246" fill-rule="evenodd" xlink:href="#path-1"></use>
                    <use stroke="#FFFFFF" mask="url(#mask-2)" stroke-width="6" xlink:href="#path-1"></use>
                </g>
                <path d="M19.5,13.2 L19.5,12.3 C19.5,9.8142 17.4858,7.8 15,7.8 C12.5142,7.8 10.5,9.8142 10.5,12.3 L10.5,13.2 C10.0023,13.2 9.6,13.6023 9.6,14.1 L9.6,21.3 C9.6,21.7977 10.0023,22.2 10.5,22.2 L19.5,22.2 C19.9977,22.2 20.4,21.7977 20.4,21.3 L20.4,14.1 C20.4,13.6023 19.9977,13.2 19.5,13.2 L19.5,13.2 Z M12.3,12.3 C12.3,10.8114 13.5114,9.6 15,9.6 C16.4886,9.6 17.7,10.8114 17.7,12.3 L17.7,13.2 L16.8,13.2 L13.2,13.2 L12.3,13.2 L12.3,12.3 L12.3,12.3 Z M18.6,20.4 L11.4,20.4 L11.4,15 L18.6,15 L18.6,20.4 L18.6,20.4 Z M14.55,19.5 L15.45,19.5 C15.6984,19.5 15.9,19.2984 15.9,19.05 L15.9,16.8 C15.9,16.3023 15.4977,15.9 15,15.9 C14.5023,15.9 14.1,16.3023 14.1,16.8 L14.1,19.05 C14.1,19.2984 14.3016,19.5 14.55,19.5 L14.55,19.5 Z" id="Combined-Shape" fill="#FFFFFF"></path>
            </g>
        </g>
    </g>
</svg>