<?xml version="1.0" encoding="UTF-8" standalone="no"?>
<svg width="80px" height="19px" viewBox="0 0 80 19" version="1.1" xmlns="http://www.w3.org/2000/svg" xmlns:xlink="http://www.w3.org/1999/xlink">
    <!-- Generator: Sketch 3.8.2 (29753) - http://www.bohemiancoding.com/sketch -->
    <title>arrow-1 copy</title>
    <desc>Created with Sketch.</desc>
    <defs></defs>
    <g id="Page-1" stroke="none" stroke-width="1" fill="none" fill-rule="evenodd">
        <g id="arrow-1-copy" transform="translate(40.000000, 9.500000) scale(-1, 1) translate(-40.000000, -9.500000) ">
            <g id="Arrow" transform="translate(0.000000, 1.000000)">
                <path d="M16,8 L68.9090919,8" id="Path-994" stroke="#B3B3B3" stroke-width="3" stroke-linecap="round" stroke-linejoin="round" stroke-dasharray="1,7"></path>
                <path d="M69,15.1259162 L69,0.873069331 C69,0.0790221514 69.892744,-0.224995912 70.3863369,0.177027975 L79.2567549,7.26744926 C79.746784,7.66947315 79.8697367,8.32951236 79.3779257,8.73153625 L70.3239696,15.8219575 C69.8339405,16.2279817 69,15.9159631 69,15.1259162 L69,15.1259162 Z" id="Right_1" fill="#B3B3B3"></path>
                <path d="M2.48689958e-14,15.1259162 L2.48689958e-14,0.873069331 C2.48689958e-14,0.0790221514 0.892743953,-0.224995912 1.38633692,0.177027975 L10.2567549,7.26744926 C10.746784,7.66947315 10.8697367,8.32951236 10.3779257,8.73153625 L1.32396957,15.8219575 C0.833940459,16.2279817 2.48689958e-14,15.9159631 2.48689958e-14,15.1259162 L2.48689958e-14,15.1259162 Z" id="Right_1-Copy" fill="#B3B3B3" transform="translate(5.345581, 8.000000) scale(-1, -1) translate(-5.345581, -8.000000) "></path>
            </g>
            <g id="Lock" transform="translate(31.000000, 0.000000)">
                <circle id="Oval-13" fill="#F73246" cx="9.5" cy="9.5" r="9.5"></circle>
                <path d="M12.35,8.36 L12.35,7.79 C12.35,6.21566 11.07434,4.94 9.5,4.94 C7.92566,4.94 6.65,6.21566 6.65,7.79 L6.65,8.36 C6.33479,8.36 6.08,8.61479 6.08,8.93 L6.08,13.49 C6.08,13.80521 6.33479,14.06 6.65,14.06 L12.35,14.06 C12.66521,14.06 12.92,13.80521 12.92,13.49 L12.92,8.93 C12.92,8.61479 12.66521,8.36 12.35,8.36 L12.35,8.36 Z M7.79,7.79 C7.79,6.84722 8.55722,6.08 9.5,6.08 C10.44278,6.08 11.21,6.84722 11.21,7.79 L11.21,8.36 L10.64,8.36 L8.36,8.36 L7.79,8.36 L7.79,7.79 L7.79,7.79 Z M11.78,12.92 L7.22,12.92 L7.22,9.5 L11.78,9.5 L11.78,12.92 L11.78,12.92 Z M9.215,12.35 L9.785,12.35 C9.94232,12.35 10.07,12.22232 10.07,12.065 L10.07,10.64 C10.07,10.32479 9.81521,10.07 9.5,10.07 C9.18479,10.07 8.93,10.32479 8.93,10.64 L8.93,12.065 C8.93,12.22232 9.05768,12.35 9.215,12.35 L9.215,12.35 Z" id="Combined-Shape" fill="#FFFFFF"></path>
            </g>
        </g>
    </g>
</svg>