<?xml version="1.0" encoding="UTF-8" standalone="no"?>
<svg width="16px" height="16px" viewBox="0 0 16 16" version="1.1" xmlns="http://www.w3.org/2000/svg" xmlns:xlink="http://www.w3.org/1999/xlink">
    <!-- Generator: Sketch 3.8.2 (29753) - http://www.bohemiancoding.com/sketch -->
    <title>Info_2_x2C__About_2</title>
    <desc>Created with Sketch.</desc>
    <defs></defs>
    <g id="Page-1" stroke="none" stroke-width="1" fill="none" fill-rule="evenodd">
        <g id="Artboard-1" transform="translate(-900.000000, -984.000000)" fill="#139CD0">
            <g id="Group-38" transform="translate(685.000000, 978.000000)">
                <g id="Group-34" transform="translate(215.000000, 6.000000)">
                    <path d="M8,0 C3.582,0 0,3.582 0,8 C0,12.418 3.582,16 8,16 C12.418,16 16,12.418 16,8 C16,3.582 12.418,0 8,0 L8,0 Z M9,12.5 C9,12.776 8.776,13 8.5,13 L7.5,13 C7.224,13 7,12.776 7,12.5 L7,6.5 C7,6.224 7.224,6 7.5,6 L8.5,6 C8.776,6 9,6.224 9,6.5 L9,12.5 L9,12.5 Z M9,4.5 C9,4.776 8.776,5 8.5,5 L7.5,5 C7.224,5 7,4.776 7,4.5 L7,3.5 C7,3.224 7.224,3 7.5,3 L8.5,3 C8.776,3 9,3.224 9,3.5 L9,4.5 L9,4.5 Z" id="Info_2_x2C__About_2"></path>
                </g>
            </g>
        </g>
    </g>
</svg>